{"title":"The Three Burials of Melquiades Estrada.XviD.Swe_sub","uid":5326670,"size":942829100,"categoryP":"video","categoryS":"movies","magnet":"?xt=urn:btih:2d37008fd19d03f1909b72b230fde224bca77c2c&amp;dn=The+Three+Burials+of+Melquiades+Estrada.XviD.Swe_sub&amp;tr=udp%3A%2F%2Ftracker.openbittorrent.com%3A80&amp;tr=udp%3A%2F%2Fopen.demonii.com%3A1337&amp;tr=udp%3A%2F%2Ftracker.coppersurfer.tk%3A6969&amp;tr=udp%3A%2F%2Fexodus.desync.com%3A6969","seeders":0,"leechers":1,"uploader":"Zen_Bud","files":-1,"time":1265038736,"description":"General\nComplete name                    : The Three Burials of Melquiades Estrada.XviD.Swe_sub\nFormat                           : AVI\nFormat/Info                      : Audio Video Interleave\nFile size                        : 899 MiB\nDuration                         : 1h 56mn\nOverall bit rate                 : 1 082 Kbps\n\nVideo\nID                               : 0\nFormat                           : MPEG-4 Visual\nCodec ID                         : XVID\nCodec ID/Hint                    : XviD\nDuration                         : 1h 56mn\nBit rate                         : 941 Kbps\nWidth                            : 716 pixels\nHeight                           : 432 pixels\nDisplay aspect ratio             : 2.35:1\nFrame rate                       : 25.000 fps\nResolution                       : 8 bits\nColorimetry                      : 4:2:0\nScan type                        : Progressive\nBits/(Pixel*Frame)               : 0.122\nStream size                      : 782 MiB (87%)\nWriting library                  : XviD 1.1.2 (UTC 2006-11-01)\n\nAudio\nID                               : 1\nFormat                           : MPEG Audio\nFormat version                   : Version 1\nFormat profile                   : Layer 3\nMode                             : Joint stereo / MS Stereo\nCodec ID                         : 55\nCodec ID/Hint                    : MP3\nDuration                         : 1h 56mn\nBit rate mode                    : Constant\nBit rate                         : 128 Kbps\nChannel(s)                       : 2 channels\nSampling rate                    : 48.0 KHz\nStream size                      : 106 MiB (12%)\nAlignment                        : Split accross interleaves\nInterleave, duration             : 24 ms (0.60 video frame)\nWriting library                  : LAME3.98\n\n","torrent":{"xt":"urn:btih:2d37008fd19d03f1909b72b230fde224bca77c2c","amp;dn":"The+Three+Burials+of+Melquiades+Estrada.XviD.Swe_sub","amp;tr":["udp%3A%2F%2Ftracker.openbittorrent.com%3A80","udp%3A%2F%2Fopen.demonii.com%3A1337","udp%3A%2F%2Ftracker.coppersurfer.tk%3A6969","udp%3A%2F%2Fexodus.desync.com%3A6969"],"infoHash":"2d37008fd19d03f1909b72b230fde224bca77c2c","infoHashBuffer":{"type":"Buffer","data":[45,55,0,143,209,157,3,241,144,155,114,178,48,253,226,36,188,167,124,44]},"announce":[],"urlList":[]}}